<mxfile host="app.diagrams.net" modified="2021-06-03T12:24:09.426Z" agent="5.0 (Windows NT 10.0; Win64; x64) AppleWebKit/537.36 (KHTML, like Gecko) Chrome/90.0.4430.212 Safari/537.36" etag="Tc7S-cFO_FayGZ69E1kp" version="14.7.2" type="github">
  <diagram id="kdcRCFT3lF07vLc_G9lJ" name="Page-1">
    <mxGraphModel dx="2310" dy="783" grid="1" gridSize="10" guides="1" tooltips="1" connect="1" arrows="1" fold="1" page="1" pageScale="1" pageWidth="827" pageHeight="1169" math="0" shadow="0">
      <root>
        <mxCell id="0" />
        <mxCell id="1" parent="0" />
        <mxCell id="LiAcayCy6RkBvRG45cp8-1" value="Начало" style="rounded=1;whiteSpace=wrap;html=1;" vertex="1" parent="1">
          <mxGeometry x="354" y="20" width="126" height="30" as="geometry" />
        </mxCell>
        <mxCell id="LiAcayCy6RkBvRG45cp8-2" value="Считываем географические координаты станции из формы" style="rounded=0;whiteSpace=wrap;html=1;" vertex="1" parent="1">
          <mxGeometry x="309" y="80" width="216" height="40" as="geometry" />
        </mxCell>
        <mxCell id="LiAcayCy6RkBvRG45cp8-3" value="Пользователь выбрал станцию 1?" style="rhombus;whiteSpace=wrap;html=1;" vertex="1" parent="1">
          <mxGeometry x="302" y="390" width="230" height="80" as="geometry" />
        </mxCell>
        <mxCell id="LiAcayCy6RkBvRG45cp8-4" value="Выход" style="rounded=1;whiteSpace=wrap;html=1;" vertex="1" parent="1">
          <mxGeometry x="262" y="1030" width="126" height="30" as="geometry" />
        </mxCell>
        <mxCell id="LiAcayCy6RkBvRG45cp8-8" value="" style="endArrow=classic;html=1;exitX=0.5;exitY=1;exitDx=0;exitDy=0;" edge="1" parent="1" source="LiAcayCy6RkBvRG45cp8-1">
          <mxGeometry width="50" height="50" relative="1" as="geometry">
            <mxPoint x="390" y="300" as="sourcePoint" />
            <mxPoint x="417.0000000000002" y="79.99999999999989" as="targetPoint" />
          </mxGeometry>
        </mxCell>
        <mxCell id="LiAcayCy6RkBvRG45cp8-9" value="" style="endArrow=classic;html=1;exitX=0.5;exitY=1;exitDx=0;exitDy=0;" edge="1" parent="1" source="LiAcayCy6RkBvRG45cp8-2">
          <mxGeometry width="50" height="50" relative="1" as="geometry">
            <mxPoint x="390" y="300" as="sourcePoint" />
            <mxPoint x="417" y="150" as="targetPoint" />
          </mxGeometry>
        </mxCell>
        <mxCell id="LiAcayCy6RkBvRG45cp8-10" value="Нет" style="text;html=1;strokeColor=none;fillColor=none;align=center;verticalAlign=middle;whiteSpace=wrap;rounded=0;" vertex="1" parent="1">
          <mxGeometry x="269" y="410" width="40" height="20" as="geometry" />
        </mxCell>
        <mxCell id="LiAcayCy6RkBvRG45cp8-13" value="" style="endArrow=none;html=1;exitX=0;exitY=1;exitDx=0;exitDy=0;" edge="1" parent="1">
          <mxGeometry width="50" height="50" relative="1" as="geometry">
            <mxPoint x="532" y="430" as="sourcePoint" />
            <mxPoint x="600" y="429.9999999999999" as="targetPoint" />
          </mxGeometry>
        </mxCell>
        <mxCell id="LiAcayCy6RkBvRG45cp8-14" style="edgeStyle=orthogonalEdgeStyle;rounded=0;orthogonalLoop=1;jettySize=auto;html=1;exitX=0.5;exitY=1;exitDx=0;exitDy=0;entryX=0.5;entryY=0;entryDx=0;entryDy=0;" edge="1" parent="1" source="LiAcayCy6RkBvRG45cp8-15" target="LiAcayCy6RkBvRG45cp8-20">
          <mxGeometry relative="1" as="geometry" />
        </mxCell>
        <mxCell id="LiAcayCy6RkBvRG45cp8-15" value="Выполняем запрос к базе данных, получаем объекты из каждой таблицы для станции 1" style="rounded=0;whiteSpace=wrap;html=1;" vertex="1" parent="1">
          <mxGeometry x="510" y="680" width="180" height="80" as="geometry" />
        </mxCell>
        <mxCell id="LiAcayCy6RkBvRG45cp8-17" value="" style="endArrow=classic;html=1;" edge="1" parent="1" target="LiAcayCy6RkBvRG45cp8-34">
          <mxGeometry width="50" height="50" relative="1" as="geometry">
            <mxPoint x="600" y="429.9999999999999" as="sourcePoint" />
            <mxPoint x="600" y="460" as="targetPoint" />
          </mxGeometry>
        </mxCell>
        <mxCell id="LiAcayCy6RkBvRG45cp8-19" style="edgeStyle=orthogonalEdgeStyle;rounded=0;orthogonalLoop=1;jettySize=auto;html=1;exitX=0.5;exitY=1;exitDx=0;exitDy=0;entryX=0.5;entryY=0;entryDx=0;entryDy=0;" edge="1" parent="1" source="LiAcayCy6RkBvRG45cp8-20" target="LiAcayCy6RkBvRG45cp8-21">
          <mxGeometry relative="1" as="geometry" />
        </mxCell>
        <mxCell id="LiAcayCy6RkBvRG45cp8-20" value="Выполняем функцию render(), заполняем шаблон данными, создаем HttpResponse для отправки браузеру" style="rounded=0;whiteSpace=wrap;html=1;" vertex="1" parent="1">
          <mxGeometry x="510" y="790" width="180" height="80" as="geometry" />
        </mxCell>
        <mxCell id="LiAcayCy6RkBvRG45cp8-21" value="Вывод заполненного шаблона&amp;nbsp;" style="shape=parallelogram;perimeter=parallelogramPerimeter;whiteSpace=wrap;html=1;fixedSize=1;" vertex="1" parent="1">
          <mxGeometry x="500" y="910" width="200" height="35" as="geometry" />
        </mxCell>
        <mxCell id="LiAcayCy6RkBvRG45cp8-22" value="" style="endArrow=none;html=1;exitX=0.5;exitY=1;exitDx=0;exitDy=0;" edge="1" parent="1" source="LiAcayCy6RkBvRG45cp8-21">
          <mxGeometry width="50" height="50" relative="1" as="geometry">
            <mxPoint x="530" y="770" as="sourcePoint" />
            <mxPoint x="600" y="1000" as="targetPoint" />
          </mxGeometry>
        </mxCell>
        <mxCell id="LiAcayCy6RkBvRG45cp8-23" style="edgeStyle=orthogonalEdgeStyle;rounded=0;orthogonalLoop=1;jettySize=auto;html=1;exitX=0.5;exitY=1;exitDx=0;exitDy=0;" edge="1" parent="1" source="LiAcayCy6RkBvRG45cp8-4" target="LiAcayCy6RkBvRG45cp8-4">
          <mxGeometry relative="1" as="geometry" />
        </mxCell>
        <mxCell id="LiAcayCy6RkBvRG45cp8-24" value="" style="endArrow=classic;html=1;" edge="1" parent="1">
          <mxGeometry width="50" height="50" relative="1" as="geometry">
            <mxPoint x="322" y="1000" as="sourcePoint" />
            <mxPoint x="322" y="1030" as="targetPoint" />
          </mxGeometry>
        </mxCell>
        <mxCell id="LiAcayCy6RkBvRG45cp8-25" value="" style="endArrow=classic;html=1;" edge="1" parent="1">
          <mxGeometry width="50" height="50" relative="1" as="geometry">
            <mxPoint x="-50" y="1000" as="sourcePoint" />
            <mxPoint x="320" y="1000" as="targetPoint" />
          </mxGeometry>
        </mxCell>
        <mxCell id="LiAcayCy6RkBvRG45cp8-26" value="" style="endArrow=classic;html=1;" edge="1" parent="1">
          <mxGeometry width="50" height="50" relative="1" as="geometry">
            <mxPoint x="600" y="1000" as="sourcePoint" />
            <mxPoint x="322" y="1000" as="targetPoint" />
          </mxGeometry>
        </mxCell>
        <mxCell id="LiAcayCy6RkBvRG45cp8-37" style="edgeStyle=orthogonalEdgeStyle;rounded=0;orthogonalLoop=1;jettySize=auto;html=1;exitX=0.5;exitY=1;exitDx=0;exitDy=0;entryX=0.5;entryY=0;entryDx=0;entryDy=0;" edge="1" parent="1" source="LiAcayCy6RkBvRG45cp8-28" target="LiAcayCy6RkBvRG45cp8-30">
          <mxGeometry relative="1" as="geometry" />
        </mxCell>
        <mxCell id="LiAcayCy6RkBvRG45cp8-28" value="&lt;span&gt;Рассчитываем расстояния от заданной точки до каждой стации, сортируем полученные расстояния, отбираем три ближайшие станции&lt;/span&gt;" style="shape=process;whiteSpace=wrap;html=1;backgroundOutline=1;" vertex="1" parent="1">
          <mxGeometry x="309" y="150" width="220" height="90" as="geometry" />
        </mxCell>
        <mxCell id="LiAcayCy6RkBvRG45cp8-38" style="edgeStyle=orthogonalEdgeStyle;rounded=0;orthogonalLoop=1;jettySize=auto;html=1;exitX=0.5;exitY=1;exitDx=0;exitDy=0;entryX=0.5;entryY=0;entryDx=0;entryDy=0;" edge="1" parent="1" source="LiAcayCy6RkBvRG45cp8-30" target="LiAcayCy6RkBvRG45cp8-3">
          <mxGeometry relative="1" as="geometry" />
        </mxCell>
        <mxCell id="LiAcayCy6RkBvRG45cp8-30" value="Выводим HTML-шаблон с данными трех полученных станций. Предоставляем пользователю возможность выбрать нужную станцию" style="shape=parallelogram;perimeter=parallelogramPerimeter;whiteSpace=wrap;html=1;fixedSize=1;" vertex="1" parent="1">
          <mxGeometry x="282" y="270" width="270" height="70" as="geometry" />
        </mxCell>
        <mxCell id="LiAcayCy6RkBvRG45cp8-31" value="Да" style="text;html=1;strokeColor=none;fillColor=none;align=center;verticalAlign=middle;whiteSpace=wrap;rounded=0;" vertex="1" parent="1">
          <mxGeometry x="532" y="410" width="40" height="20" as="geometry" />
        </mxCell>
        <mxCell id="LiAcayCy6RkBvRG45cp8-33" value="Пользователь выбрал станцию 2?" style="rhombus;whiteSpace=wrap;html=1;" vertex="1" parent="1">
          <mxGeometry x="52" y="480" width="218" height="80" as="geometry" />
        </mxCell>
        <mxCell id="LiAcayCy6RkBvRG45cp8-35" style="edgeStyle=orthogonalEdgeStyle;rounded=0;orthogonalLoop=1;jettySize=auto;html=1;exitX=0.5;exitY=1;exitDx=0;exitDy=0;entryX=0.5;entryY=0;entryDx=0;entryDy=0;" edge="1" parent="1" source="LiAcayCy6RkBvRG45cp8-34" target="LiAcayCy6RkBvRG45cp8-15">
          <mxGeometry relative="1" as="geometry" />
        </mxCell>
        <mxCell id="LiAcayCy6RkBvRG45cp8-34" value="Передаем соответствующий id на сервер" style="rounded=0;whiteSpace=wrap;html=1;" vertex="1" parent="1">
          <mxGeometry x="510" y="590" width="180" height="60" as="geometry" />
        </mxCell>
        <mxCell id="LiAcayCy6RkBvRG45cp8-39" value="" style="endArrow=none;html=1;entryX=0;entryY=0.5;entryDx=0;entryDy=0;" edge="1" parent="1" target="LiAcayCy6RkBvRG45cp8-3">
          <mxGeometry width="50" height="50" relative="1" as="geometry">
            <mxPoint x="160" y="430" as="sourcePoint" />
            <mxPoint x="440" y="410" as="targetPoint" />
          </mxGeometry>
        </mxCell>
        <mxCell id="LiAcayCy6RkBvRG45cp8-40" value="" style="endArrow=classic;html=1;entryX=0.5;entryY=0;entryDx=0;entryDy=0;" edge="1" parent="1" target="LiAcayCy6RkBvRG45cp8-33">
          <mxGeometry width="50" height="50" relative="1" as="geometry">
            <mxPoint x="160" y="430" as="sourcePoint" />
            <mxPoint x="440" y="410" as="targetPoint" />
          </mxGeometry>
        </mxCell>
        <mxCell id="LiAcayCy6RkBvRG45cp8-41" value="" style="endArrow=none;html=1;" edge="1" parent="1">
          <mxGeometry width="50" height="50" relative="1" as="geometry">
            <mxPoint x="270" y="520" as="sourcePoint" />
            <mxPoint x="320" y="520" as="targetPoint" />
          </mxGeometry>
        </mxCell>
        <mxCell id="LiAcayCy6RkBvRG45cp8-42" value="Да" style="text;html=1;strokeColor=none;fillColor=none;align=center;verticalAlign=middle;whiteSpace=wrap;rounded=0;" vertex="1" parent="1">
          <mxGeometry x="262" y="500" width="40" height="20" as="geometry" />
        </mxCell>
        <mxCell id="LiAcayCy6RkBvRG45cp8-43" style="edgeStyle=orthogonalEdgeStyle;rounded=0;orthogonalLoop=1;jettySize=auto;html=1;exitX=0.5;exitY=1;exitDx=0;exitDy=0;entryX=0.5;entryY=0;entryDx=0;entryDy=0;" edge="1" parent="1" source="LiAcayCy6RkBvRG45cp8-44" target="LiAcayCy6RkBvRG45cp8-46">
          <mxGeometry relative="1" as="geometry" />
        </mxCell>
        <mxCell id="LiAcayCy6RkBvRG45cp8-44" value="Выполняем запрос к базе данных, получаем объекты из каждой таблицы для станции 2" style="rounded=0;whiteSpace=wrap;html=1;" vertex="1" parent="1">
          <mxGeometry x="230" y="680" width="180" height="80" as="geometry" />
        </mxCell>
        <mxCell id="LiAcayCy6RkBvRG45cp8-45" style="edgeStyle=orthogonalEdgeStyle;rounded=0;orthogonalLoop=1;jettySize=auto;html=1;exitX=0.5;exitY=1;exitDx=0;exitDy=0;entryX=0.5;entryY=0;entryDx=0;entryDy=0;" edge="1" parent="1" source="LiAcayCy6RkBvRG45cp8-46" target="LiAcayCy6RkBvRG45cp8-47">
          <mxGeometry relative="1" as="geometry" />
        </mxCell>
        <mxCell id="LiAcayCy6RkBvRG45cp8-46" value="Выполняем функцию render(), заполняем шаблон данными, создаем HttpResponse для отправки браузеру" style="rounded=0;whiteSpace=wrap;html=1;" vertex="1" parent="1">
          <mxGeometry x="230" y="790" width="180" height="80" as="geometry" />
        </mxCell>
        <mxCell id="LiAcayCy6RkBvRG45cp8-47" value="Вывод заполненного шаблона&amp;nbsp;" style="shape=parallelogram;perimeter=parallelogramPerimeter;whiteSpace=wrap;html=1;fixedSize=1;" vertex="1" parent="1">
          <mxGeometry x="220" y="910" width="200" height="35" as="geometry" />
        </mxCell>
        <mxCell id="LiAcayCy6RkBvRG45cp8-48" value="" style="endArrow=classic;html=1;entryX=0.5;entryY=0;entryDx=0;entryDy=0;" edge="1" parent="1" target="LiAcayCy6RkBvRG45cp8-61">
          <mxGeometry width="50" height="50" relative="1" as="geometry">
            <mxPoint x="320" y="520" as="sourcePoint" />
            <mxPoint x="320" y="580" as="targetPoint" />
          </mxGeometry>
        </mxCell>
        <mxCell id="LiAcayCy6RkBvRG45cp8-49" value="" style="endArrow=none;html=1;entryX=0;entryY=0.5;entryDx=0;entryDy=0;" edge="1" parent="1" target="LiAcayCy6RkBvRG45cp8-33">
          <mxGeometry width="50" height="50" relative="1" as="geometry">
            <mxPoint x="-50" y="520" as="sourcePoint" />
            <mxPoint x="140" y="630" as="targetPoint" />
          </mxGeometry>
        </mxCell>
        <mxCell id="LiAcayCy6RkBvRG45cp8-50" value="" style="endArrow=classic;html=1;entryX=0.5;entryY=0;entryDx=0;entryDy=0;" edge="1" parent="1" target="LiAcayCy6RkBvRG45cp8-60">
          <mxGeometry width="50" height="50" relative="1" as="geometry">
            <mxPoint x="-48" y="520" as="sourcePoint" />
            <mxPoint x="-49" y="570" as="targetPoint" />
          </mxGeometry>
        </mxCell>
        <mxCell id="LiAcayCy6RkBvRG45cp8-51" value="Нет" style="text;html=1;strokeColor=none;fillColor=none;align=center;verticalAlign=middle;whiteSpace=wrap;rounded=0;" vertex="1" parent="1">
          <mxGeometry x="20" y="500" width="40" height="20" as="geometry" />
        </mxCell>
        <mxCell id="LiAcayCy6RkBvRG45cp8-52" style="edgeStyle=orthogonalEdgeStyle;rounded=0;orthogonalLoop=1;jettySize=auto;html=1;exitX=0.5;exitY=1;exitDx=0;exitDy=0;entryX=0.5;entryY=0;entryDx=0;entryDy=0;" edge="1" parent="1" source="LiAcayCy6RkBvRG45cp8-53" target="LiAcayCy6RkBvRG45cp8-55">
          <mxGeometry relative="1" as="geometry" />
        </mxCell>
        <mxCell id="LiAcayCy6RkBvRG45cp8-53" value="Выполняем запрос к базе данных, получаем объекты из каждой таблицы для станции 3" style="rounded=0;whiteSpace=wrap;html=1;" vertex="1" parent="1">
          <mxGeometry x="-138" y="680" width="180" height="80" as="geometry" />
        </mxCell>
        <mxCell id="LiAcayCy6RkBvRG45cp8-54" style="edgeStyle=orthogonalEdgeStyle;rounded=0;orthogonalLoop=1;jettySize=auto;html=1;exitX=0.5;exitY=1;exitDx=0;exitDy=0;entryX=0.5;entryY=0;entryDx=0;entryDy=0;" edge="1" parent="1" source="LiAcayCy6RkBvRG45cp8-55" target="LiAcayCy6RkBvRG45cp8-56">
          <mxGeometry relative="1" as="geometry" />
        </mxCell>
        <mxCell id="LiAcayCy6RkBvRG45cp8-55" value="Выполняем функцию render(), заполняем шаблон данными, создаем HttpResponse для отправки браузеру" style="rounded=0;whiteSpace=wrap;html=1;" vertex="1" parent="1">
          <mxGeometry x="-138" y="790" width="180" height="80" as="geometry" />
        </mxCell>
        <mxCell id="LiAcayCy6RkBvRG45cp8-56" value="Вывод заполненного шаблона&amp;nbsp;" style="shape=parallelogram;perimeter=parallelogramPerimeter;whiteSpace=wrap;html=1;fixedSize=1;" vertex="1" parent="1">
          <mxGeometry x="-148" y="910" width="200" height="35" as="geometry" />
        </mxCell>
        <mxCell id="LiAcayCy6RkBvRG45cp8-57" value="" style="endArrow=none;html=1;exitX=0.5;exitY=1;exitDx=0;exitDy=0;" edge="1" parent="1" source="LiAcayCy6RkBvRG45cp8-56">
          <mxGeometry width="50" height="50" relative="1" as="geometry">
            <mxPoint x="270" y="720" as="sourcePoint" />
            <mxPoint x="-48" y="1000" as="targetPoint" />
          </mxGeometry>
        </mxCell>
        <mxCell id="LiAcayCy6RkBvRG45cp8-59" value="" style="endArrow=classic;html=1;exitX=0.5;exitY=1;exitDx=0;exitDy=0;" edge="1" parent="1" source="LiAcayCy6RkBvRG45cp8-47">
          <mxGeometry width="50" height="50" relative="1" as="geometry">
            <mxPoint x="270" y="720" as="sourcePoint" />
            <mxPoint x="320" y="1000" as="targetPoint" />
          </mxGeometry>
        </mxCell>
        <mxCell id="LiAcayCy6RkBvRG45cp8-63" style="edgeStyle=orthogonalEdgeStyle;rounded=0;orthogonalLoop=1;jettySize=auto;html=1;exitX=0.5;exitY=1;exitDx=0;exitDy=0;entryX=0.5;entryY=0;entryDx=0;entryDy=0;" edge="1" parent="1" source="LiAcayCy6RkBvRG45cp8-60" target="LiAcayCy6RkBvRG45cp8-53">
          <mxGeometry relative="1" as="geometry" />
        </mxCell>
        <mxCell id="LiAcayCy6RkBvRG45cp8-60" value="Передаем соответствующий id на сервер" style="rounded=0;whiteSpace=wrap;html=1;" vertex="1" parent="1">
          <mxGeometry x="-138" y="590" width="180" height="60" as="geometry" />
        </mxCell>
        <mxCell id="LiAcayCy6RkBvRG45cp8-62" style="edgeStyle=orthogonalEdgeStyle;rounded=0;orthogonalLoop=1;jettySize=auto;html=1;exitX=0.5;exitY=1;exitDx=0;exitDy=0;entryX=0.5;entryY=0;entryDx=0;entryDy=0;" edge="1" parent="1" source="LiAcayCy6RkBvRG45cp8-61" target="LiAcayCy6RkBvRG45cp8-44">
          <mxGeometry relative="1" as="geometry" />
        </mxCell>
        <mxCell id="LiAcayCy6RkBvRG45cp8-61" value="Передаем соответствующий id на сервер" style="rounded=0;whiteSpace=wrap;html=1;" vertex="1" parent="1">
          <mxGeometry x="230" y="590" width="180" height="60" as="geometry" />
        </mxCell>
      </root>
    </mxGraphModel>
  </diagram>
</mxfile>
